<svg width="100" height="100" viewBox="0 0 1024 1024" class="icon"  version="1.1" xmlns="http://www.w3.org/2000/svg"><path d="M170.666667 810.666667m-64 0a64 64 0 1 0 128 0 64 64 0 1 0-128 0Z" fill="#3F51B5" /><path d="M341.333333 853.333333m-64 0a64 64 0 1 0 128 0 64 64 0 1 0-128 0Z" fill="#3F51B5" /><path d="M512 704m-64 0a64 64 0 1 0 128 0 64 64 0 1 0-128 0Z" fill="#3F51B5" /><path d="M682.666667 746.666667m-64 0a64 64 0 1 0 128 0 64 64 0 1 0-128 0Z" fill="#3F51B5" /><path d="M853.333333 661.333333m-64 0a64 64 0 1 0 128 0 64 64 0 1 0-128 0Z" fill="#3F51B5" /><path d="M834.133333 622.933333l-155.733333 78.933334-177.066667-44.8-170.666666 149.333333-149.333334-36.266667-21.333333 81.066667 192 49.066667 170.666667-149.333334 164.266666 40.533334 185.6-91.733334z" fill="#3F51B5" /><path d="M170.666667 426.666667m-64 0a64 64 0 1 0 128 0 64 64 0 1 0-128 0Z" fill="#00BCD4" /><path d="M341.333333 469.333333m-64 0a64 64 0 1 0 128 0 64 64 0 1 0-128 0Z" fill="#00BCD4" /><path d="M512 320m-64 0a64 64 0 1 0 128 0 64 64 0 1 0-128 0Z" fill="#00BCD4" /><path d="M682.666667 426.666667m-64 0a64 64 0 1 0 128 0 64 64 0 1 0-128 0Z" fill="#00BCD4" /><path d="M853.333333 170.666667m-64 0a64 64 0 1 0 128 0 64 64 0 1 0-128 0Z" fill="#00BCD4" /><path d="M817.066667 147.2c-44.8 68.266667-113.066667 170.666667-147.2 221.866667-25.6-14.933333-66.133333-42.666667-136.533334-85.333334l-27.733333-17.066666-177.066667 155.733333-149.333333-36.266667-21.333333 83.2 192 49.066667 164.266666-142.933333c55.466667 34.133333 123.733333 76.8 138.666667 87.466666l10.666667 10.666667 19.2-2.133333c23.466667-2.133333 23.466667-2.133333 202.666666-275.2l-68.266666-49.066667z" fill="#00BCD4" /></svg>