<svg width="100" height="100" viewBox="0 0 1024 1024" class="icon"  version="1.1" xmlns="http://www.w3.org/2000/svg"><path d="M494.2 278.3h-14.6c-129.5 0-234.9 115.6-234.9 257.9-0.6 135.4 108.2 245.6 243.1 246.2h5.3C629.9 784.5 742.5 675.2 745 538v-14.7H494.2v-245z" fill="#E1F0FF" /><path d="M556.7 213.7H542v241.6c0 4.7 1.9 9.3 5.3 12.5 3.2 3.1 7.5 4.9 12.1 4.9h247.3V458c-0.4-135.4-110-244.8-244.9-244.5-1.6 0.2-3.4 0.2-5.1 0.2z" fill="#E1F0FF" /><path d="M550.9 206.3c-1.9 0-3.8 0-5.7 0.1h-6.3v107.8h0.1v164h253v0.5h19.2v-13.2C810.9 322 694.4 206 550.9 206.3z m8.9 251.5l0.9-7.9V238c119 7.2 222 104.4 229.6 219.8H559.8z" fill="#446EB1" /><path d="M767.3 522.6c-1.1-0.2-2.3-0.4-3.4-0.5h-14c-1.1 0.1-2.3 0.3-3.4 0.5H495V271.2c1.3-6.9 1.3-14 0-20.9-2.6-2.6-3.2 0-6.8 0.2-147.5 5.4-264.5 126-265.6 273.6 0.6 150 122.5 271.2 272.5 270.9 148.1-2.5 268.1-121.1 272.1-269.2 0.1-3.7 2.7-0.6 0.1-3.2zM495.1 767.7h-5.2c-133.5-1-241-110-240-243.6 0.9-127.4 98.2-233.5 225.1-245.5h0.1v246.7c0 7.6 6.1 13.7 13.6 13.7h250.5c-12 126.9-116.7 225-244.1 228.7z" fill="#446EB1" /></svg>