<svg width="100" height="100" viewBox="0 0 1024 1024" class="icon"  version="1.1" xmlns="http://www.w3.org/2000/svg"><path d="M819.2 277.333333L514.133333 136.533333 98.133333 258.133333l187.733334 281.6-46.933334 322.133334h484.266667l140.8-283.733334L819.2 277.333333z m-134.4 522.666667H313.6l38.4-275.2-151.466667-228.266667 309.333334-91.733333L759.466667 320l38.4 249.6-113.066667 230.4z" fill="#CFD8DC" /><path d="M512 170.666667m-85.333333 0a85.333333 85.333333 0 1 0 170.666666 0 85.333333 85.333333 0 1 0-170.666666 0Z" fill="#00BCD4" /><path d="M789.333333 298.666667m-85.333333 0a85.333333 85.333333 0 1 0 170.666667 0 85.333333 85.333333 0 1 0-170.666667 0Z" fill="#00BCD4" /><path d="M832 576m-85.333333 0a85.333333 85.333333 0 1 0 170.666666 0 85.333333 85.333333 0 1 0-170.666666 0Z" fill="#00BCD4" /><path d="M149.333333 277.333333m-85.333333 0a85.333333 85.333333 0 1 0 170.666667 0 85.333333 85.333333 0 1 0-170.666667 0Z" fill="#00BCD4" /><path d="M277.333333 832m-85.333333 0a85.333333 85.333333 0 1 0 170.666667 0 85.333333 85.333333 0 1 0-170.666667 0Z" fill="#00BCD4" /><path d="M320 533.333333m-85.333333 0a85.333333 85.333333 0 1 0 170.666666 0 85.333333 85.333333 0 1 0-170.666666 0Z" fill="#00BCD4" /><path d="M704 832m-85.333333 0a85.333333 85.333333 0 1 0 170.666666 0 85.333333 85.333333 0 1 0-170.666666 0Z" fill="#00BCD4" /></svg>